 <svg version="1.0" xmlns="http://www.w3.org/2000/svg" width="700.000000pt" height="700.000000pt" viewBox="0 0 700.000000 700.000000" preserveAspectRatio="xMidYMid meet">
<metadata>
Created by potrace 1.12, written by Peter Selinger 2001-2015
</metadata>
<g transform="translate(0.000000,700.000000) scale(0.100000,-0.100000)" fill="#000000" stroke="none">
<path d="M3095 4378 c-14 -13 -93 -120 -174 -238 l-148 -215 -454 -5 c-250 -3
-462 -9 -472 -14 -9 -4 -72 -88 -139 -185 -476 -691 -670 -974 -680 -995 -18
-41 -2 -93 35 -113 30 -15 132 -16 1337 -10 1229 6 1306 7 1327 24 13 10 96
124 185 253 675 984 861 1251 867 1243 18 -20 369 -529 813 -1178 109 -159
210 -300 224 -312 57 -51 154 -7 154 70 0 38 10 22 -381 590 -130 188 -347
504 -483 702 -136 198 -259 370 -272 383 l-25 22 -844 0 -844 0 -26 -22z
m1485 -176 c0 -4 -43 -71 -96 -148 -52 -76 -121 -176 -152 -222 -31 -45 -131
-190 -222 -322 -91 -132 -235 -341 -320 -465 -85 -123 -157 -225 -160 -225 -3
0 -24 28 -47 63 -22 34 -72 107 -110 162 -38 55 -139 201 -224 325 -86 124
-190 276 -233 338 l-78 113 29 43 c15 23 75 111 132 194 l104 152 689 0 c378
0 688 -4 688 -8z m-2012 -574 c-449 -656 -573 -831 -596 -839 -32 -12 -650
-11 -657 2 -3 5 43 80 102 166 60 87 202 294 317 461 l208 302 345 0 344 0
-63 -92z m299 -45 c203 -290 533 -776 530 -779 -2 -2 -263 -3 -580 -2 l-577 3
97 141 c54 77 184 265 288 417 105 152 193 277 196 277 3 0 24 -26 46 -57z"></path>
</g>
</svg>