 <svg version="1.0" xmlns="http://www.w3.org/2000/svg" width="700.000000pt" height="700.000000pt" viewBox="0 0 700.000000 700.000000" preserveAspectRatio="xMidYMid meet">
<metadata>
Created by potrace 1.12, written by Peter Selinger 2001-2015
</metadata>
<g transform="translate(0.000000,700.000000) scale(0.100000,-0.100000)" fill="#000000" stroke="none">
<path d="M2748 5272 c-54 -25 -78 -50 -233 -242 -77 -95 -174 -214 -215 -265
-101 -123 -190 -232 -441 -540 -116 -143 -257 -316 -313 -384 -205 -251 -216
-268 -216 -315 0 -31 30 -82 60 -103 12 -9 43 -16 69 -17 l46 -1 0 -720 0
-720 -85 -6 c-102 -6 -113 -11 -140 -55 -38 -65 -19 -135 45 -173 l36 -21
2135 0 2134 0 40 25 c25 16 42 35 46 53 3 15 7 32 9 39 7 22 -15 80 -40 103
-13 13 -42 26 -62 29 l-38 6 -3 800 -2 800 42 18 c68 29 92 68 96 151 l3 71
-92 135 c-51 74 -124 182 -164 240 -40 58 -107 157 -150 220 -43 63 -103 151
-133 195 -30 44 -63 88 -74 97 -17 15 -83 17 -831 17 -447 0 -826 0 -843 1
-34 0 -32 -2 -259 281 -128 159 -149 184 -184 223 -66 71 -163 94 -243 58z
m139 -48 c40 -20 69 -52 314 -354 324 -399 531 -653 595 -730 65 -78 209 -256
329 -405 39 -48 85 -103 103 -123 53 -61 55 -119 4 -146 -39 -20 -69 -4 -129
69 -94 115 -180 221 -272 335 -52 63 -108 133 -127 155 -72 88 -684 840 -782
963 -44 55 -81 92 -92 92 -17 0 -92 -88 -350 -409 -46 -58 -87 -108 -90 -111
-3 -3 -44 -52 -90 -110 -47 -57 -93 -114 -102 -125 -9 -11 -50 -61 -90 -111
-67 -84 -156 -193 -478 -587 -154 -188 -193 -209 -235 -127 -20 39 -18 43 109
199 218 269 429 527 591 726 94 114 190 233 215 264 83 104 304 376 310 381 3
3 27 32 54 65 50 62 113 105 154 105 13 0 40 -7 59 -16z m29 -321 c43 -53 113
-138 154 -188 116 -142 309 -378 488 -599 90 -111 171 -210 180 -221 9 -11 55
-67 102 -125 47 -58 87 -107 90 -110 3 -3 40 -49 83 -102 l77 -97 0 -751 0
-751 -47 3 -48 3 -5 550 -5 550 -380 5 c-209 3 -398 3 -420 0 l-40 -5 -5 -550
-5 -550 -785 0 -785 0 -3 744 -2 744 97 119 c54 66 143 175 198 242 55 68 183
225 285 351 174 214 274 337 324 395 11 14 57 70 101 125 44 55 87 108 95 117
8 9 47 57 85 107 39 49 75 90 81 90 6 1 46 -43 90 -96z m2281 -428 c64 -93
172 -253 241 -355 231 -339 232 -341 232 -377 0 -19 -7 -47 -15 -63 -33 -63 4
-60 -712 -60 l-652 0 -262 323 c-145 177 -293 358 -329 403 -36 44 -102 126
-147 182 -46 55 -83 106 -83 111 0 8 240 10 806 9 l806 -3 115 -170z m323
-1715 l0 -800 -682 2 -683 3 0 720 0 720 24 -3 c71 -8 141 52 141 119 l0 39
600 0 600 0 0 -800z m-1592 252 c10 -7 12 -119 10 -528 l-3 -519 -370 0 -370
0 -3 519 c-2 405 1 521 10 527 17 11 710 11 726 1z m1717 -1127 c30 -29 32
-68 5 -95 -20 -20 -33 -20 -2154 -20 -2018 0 -2135 1 -2154 18 -36 30 -37 59
-3 92 l29 30 2127 0 2126 0 24 -25z"></path>
<path d="M2512 4472 c-9 -7 -12 -80 -10 -333 l3 -324 325 0 325 0 3 324 c2
253 -1 326 -10 333 -7 4 -150 8 -318 8 -168 0 -311 -4 -318 -8z m596 -321 c1
-145 -1 -268 -5 -272 -6 -6 -486 -15 -540 -10 -10 1 -13 62 -13 269 0 148 3
272 7 275 4 4 128 6 277 5 l271 -3 3 -264z"></path>
<path d="M2637 4352 c-16 -3 -17 -22 -15 -205 l3 -202 199 -3 c153 -2 201 1
208 10 12 20 10 386 -3 394 -11 6 -361 12 -392 6z m347 -69 c6 -22 6 -251 -1
-276 -4 -16 -18 -17 -156 -15 l-152 3 -3 140 c-1 76 0 145 2 152 4 10 42 13
155 13 134 0 150 -2 155 -17z"></path>
<path d="M1766 3112 c-9 -15 -9 -773 1 -783 5 -5 238 -8 594 -7 l584 3 0 395
0 395 -587 3 c-323 1 -589 -2 -592 -6z m562 -320 l2 -272 -257 2 -258 3 -1
259 c-1 143 0 265 3 272 3 10 65 12 256 11 l252 -2 3 -273z m560 265 c9 -11
12 -83 10 -273 l-3 -259 -255 0 -255 0 -3 259 c-1 160 1 263 8 270 7 9 78 13
248 15 198 2 240 0 250 -12z m10 -639 c2 -21 0 -38 -5 -38 -4 0 -248 -2 -541
-3 -349 -1 -532 1 -533 8 -4 28 -4 61 -1 68 2 4 245 6 540 5 l537 -3 3 -37z"></path>
<path d="M4249 3108 c-2 -7 -2 -186 1 -398 l5 -385 579 -3 c419 -1 583 1 592
9 11 9 14 82 14 384 0 206 -3 380 -6 389 -6 14 -67 16 -594 16 -462 0 -589 -3
-591 -12z m559 -315 l2 -273 -254 0 c-220 0 -255 2 -260 15 -10 26 -5 509 5
521 6 8 85 11 257 10 l247 -1 3 -272z m556 271 c14 -5 16 -40 16 -275 l0 -269
-255 0 -255 0 0 268 c0 148 3 271 6 274 7 8 469 9 488 2z m16 -644 l0 -40
-502 -1 c-277 0 -518 -2 -535 -3 -18 -2 -36 1 -41 8 -7 9 -9 62 -3 74 0 1 244
2 541 2 l540 0 0 -40z"></path>
<path d="M3302 2444 c-42 -29 -19 -78 35 -72 23 2 28 8 28 32 0 40 -33 62 -63
40z"></path>
</g>
</svg>