<svg id="svg" version="1.1" xmlns="http://www.w3.org/2000/svg" style="display: block;" viewBox="0 0 1080 1080"><path d="M0 0 C356.4 0 712.8 0 1080 0 C1080 356.4 1080 712.8 1080 1080 C723.6 1080 367.2 1080 0 1080 C0 723.6 0 367.2 0 0 Z " transform="translate(0,0)" style="fill: #FBFCF8;"/><path d="M0 0 C1.06992945 -0.00623996 2.1398589 -0.01247993 3.24221045 -0.01890898 C6.83361742 -0.03488585 10.42435011 -0.02221574 14.01576233 -0.00964355 C16.58801673 -0.01506259 19.16026803 -0.02218401 21.73251343 -0.03088379 C27.99775727 -0.04867366 34.26280948 -0.04482686 40.52806085 -0.03323323 C45.62039318 -0.02420017 50.7126718 -0.02297434 55.80500984 -0.02732849 C56.5297447 -0.02794142 57.25447956 -0.02855436 58.00117608 -0.02918586 C59.47346804 -0.03046476 60.94575998 -0.03176162 62.41805191 -0.03307623 C76.22530326 -0.0444836 90.03244841 -0.03136631 103.83968235 -0.00987476 C115.68521275 0.00799261 127.53058633 0.00489545 139.37611389 -0.0135498 C153.132354 -0.03496029 166.88850098 -0.04338097 180.64475542 -0.03110075 C182.11194104 -0.02982656 183.57912668 -0.02856908 185.04631233 -0.02732849 C186.12912885 -0.02640284 186.12912885 -0.02640284 187.23382045 -0.02545848 C192.31913077 -0.02200583 197.40438199 -0.02783217 202.48968315 -0.0372467 C209.33596942 -0.04964275 216.18195454 -0.04080534 223.02821159 -0.01766968 C225.54289253 -0.01237473 228.05759836 -0.01390971 230.57226944 -0.02272034 C234.00123603 -0.03362781 237.42924872 -0.01996869 240.8581543 0 C242.35596551 -0.01338433 242.35596551 -0.01338433 243.88403553 -0.02703905 C249.74372564 0.03928926 253.00272761 0.65629724 257.49256897 4.50793457 C259.44178772 6.74230957 259.44178772 6.74230957 261.18006897 9.25793457 C261.85811584 10.22859863 262.53616272 11.1992627 263.23475647 12.19934082 C263.98771706 13.30196209 264.7403012 14.4048405 265.49256897 15.50793457 C266.34862149 16.74671252 267.20542453 17.98497207 268.06288147 19.22277832 C270.40901746 22.61704391 272.74083714 26.02091401 275.06922913 29.42736816 C277.37086452 32.79178271 279.68208599 36.14959294 281.99256897 39.50793457 C282.90928402 40.84123464 283.82595063 42.17456801 284.74256897 43.50793457 C285.19631897 44.16793457 285.65006897 44.82793457 286.11756897 45.50793457 C290.24256897 51.50793458 290.24256897 51.50793458 291.61634827 53.50622559 C292.53700113 54.84531248 293.45773738 56.18434204 294.3785553 57.52331543 C296.60990589 60.76816459 298.84000845 64.01385259 301.06678772 67.26184082 C306.42634118 75.07499543 311.82419857 82.86044275 317.24256897 90.63293457 C323.16541037 99.13104618 329.02506858 107.66950391 334.84706116 116.23693848 C339.35224728 122.8578393 343.91028628 129.44019929 348.49256897 136.00793457 C355.67891782 146.30921232 362.76325714 156.67740483 369.82752991 167.06262207 C376.56920244 176.96358866 383.39348362 186.80605705 390.24256897 196.63293457 C396.89503902 206.17936343 403.47072557 215.77576137 410.01210022 225.39855957 C412.68872431 229.33438185 415.3842018 233.25651358 418.09364319 237.1697998 C419.84825247 239.71046179 421.58524465 242.26295038 423.32313538 244.81506348 C424.43246113 246.4209225 425.57685581 248.00238946 426.72303772 249.58215332 C430.34468931 254.76523554 432.55971542 258.76823221 432.04725647 265.21496582 C430.79787768 270.37965139 428.0366403 273.39476687 423.80506897 276.44543457 C418.14056828 278.26234989 412.96767422 278.76035765 407.56678772 276.02746582 C403.57475915 272.75572703 401.10151966 269.05862097 398.30506897 264.75793457 C397.15823402 263.03768214 396.01109381 261.31763317 394.86366272 259.59777832 C394.29631409 258.73910156 393.72896545 257.8804248 393.14442444 256.99572754 C390.76180732 253.4073639 388.31713093 249.86327377 385.86756897 246.32043457 C384.96882876 245.01465328 384.07039021 243.70866432 383.17225647 242.40246582 C382.73107483 241.76131836 382.28989319 241.1201709 381.83534241 240.45959473 C380.013944 237.81227494 378.19351814 235.16428716 376.3731842 232.51623535 C375.45093153 231.17468796 374.5285678 229.8332169 373.60609436 228.49182129 C371.37489316 225.24722544 369.1449636 222.00177458 366.91835022 218.75402832 C361.55879648 210.9408733 356.16088704 203.15546318 350.74256897 195.38293457 C343.47558744 184.95489381 336.30630198 174.46257224 329.15760803 163.95324707 C322.4159355 154.05228048 315.59165432 144.20981209 308.74256897 134.38293457 C301.4756923 123.95481979 294.30630289 113.46257357 287.15760803 102.95324707 C280.33146011 92.92821809 273.42204864 82.96173133 266.49256897 73.00793457 C265.12794077 71.04572619 263.76335675 69.08348708 262.39881897 67.12121582 C259.94590668 63.593952 257.48735534 60.07075252 255.02381897 56.55090332 C254.01319065 55.09922773 253.00275938 53.64741492 251.99256897 52.19543457 C251.52979553 51.5380127 251.06702209 50.88059082 250.59022522 50.20324707 C247.49256897 45.73528806 247.49256897 45.73528806 247.49256897 43.50793457 C243.00215499 47.642098 239.74724221 52.25702704 236.36756897 57.32043457 C235.21153395 59.03151734 234.05528053 60.74245256 232.89881897 62.45324707 C232.03836975 63.73183594 232.03836975 63.73183594 231.16053772 65.03625488 C228.7522286 68.60500803 226.31153171 72.1510465 223.86756897 75.69543457 C222.9624847 77.0104449 222.05753608 78.3255486 221.15272522 79.64074707 C220.71073792 80.28302246 220.26875061 80.92529785 219.81336975 81.58703613 C218.51611339 83.47369289 217.22082392 85.36168373 215.92616272 87.25012207 C210.56423005 95.06734034 205.16357245 102.85655378 199.74256897 110.63293457 C192.47558744 121.06097533 185.30630198 131.5532969 178.15760803 142.06262207 C171.4159355 151.96358866 164.59165432 161.80605705 157.74256897 171.63293457 C150.4756923 182.06104935 143.30630289 192.55329557 136.15760803 203.06262207 C128.7453993 213.94835267 121.2309304 224.76189145 113.69837952 235.5645752 C108.2527036 243.38639332 102.87442922 251.25261986 97.54042053 259.15100098 C95.87157985 261.61312531 94.18554108 264.06236034 92.49256897 266.50793457 C91.98113342 267.26606445 91.46969788 268.02419434 90.94276428 268.80529785 C90.44615295 269.51283203 89.94954163 270.22036621 89.43788147 270.94934082 C89.01265198 271.56623779 88.58742249 272.18313477 88.14930725 272.81872559 C84.06633866 276.98171699 79.44103663 277.89061293 73.8014555 278.0123148 C72.48322585 278.04676022 71.16499621 278.08120564 69.80682021 278.11669487 C68.36660371 278.13914849 66.92637816 278.16102831 65.48614502 278.18238831 C63.96494686 278.21483982 62.44376703 278.24816131 60.92260569 278.28229529 C56.11286206 278.38317346 51.30301169 278.45075428 46.49256897 278.50793457 C45.73409874 278.51699132 44.9756285 278.52604807 44.19417432 278.53537926 C33.19595418 278.66030541 22.19779569 278.69442949 11.19895899 278.71195447 C7.60772457 278.71846537 4.01650299 278.72851 0.42527685 278.73851513 C-11.34797656 278.77127537 -23.12123771 278.79321358 -34.89452121 278.81171498 C-37.96090311 278.81653501 -41.02728471 278.82151474 -44.09366632 278.8265202 C-63.21095188 278.8574303 -82.32824086 278.88405194 -101.44554424 278.90093899 C-105.83816216 278.9048869 -110.23078002 278.90889024 -114.62339783 278.91296387 C-116.26056603 278.91447641 -116.26056603 278.91447641 -117.93080834 278.91601951 C-135.70046721 278.93311022 -153.46998895 278.97434966 -171.23958053 279.02498686 C-189.54350109 279.07671481 -207.8473506 279.10587115 -226.15134364 279.11313587 C-236.40554805 279.11779467 -246.65952459 279.13251767 -256.91365623 279.17288017 C-265.61968362 279.20711531 -274.32544155 279.22114394 -283.03153243 279.20845603 C-287.47021376 279.20262095 -291.90832435 279.20655523 -296.34692001 279.23662567 C-300.40916056 279.26392428 -304.47042297 279.26353918 -308.53268466 279.24111522 C-310.001515 279.23788498 -311.47041016 279.24480348 -312.93913241 279.26291244 C-325.26749054 279.4057129 -325.26749054 279.4057129 -329.8659029 275.64991856 C-333.06436609 272.38573907 -333.68781333 269.23602926 -333.81993103 264.75793457 C-333.85731384 263.93809082 -333.89469666 263.11824707 -333.93321228 262.27355957 C-332.77169366 254.72901664 -326.35774733 247.84798717 -322.06993103 241.75793457 C-320.62922609 239.69976123 -319.18913052 237.64116121 -317.74961853 235.58215332 C-317.03386658 234.55912109 -316.31811462 233.53608887 -315.58067322 232.48205566 C-312.59277992 228.19584321 -309.63980836 223.88627259 -306.69493103 219.57043457 C-306.16730164 218.79756104 -305.63967224 218.0246875 -305.09605408 217.22839355 C-304.06331789 215.71552422 -303.03068173 214.20258659 -301.99815369 212.6895752 C-298.28821498 207.26015949 -294.55607508 201.84596144 -290.82823181 196.42883301 C-289.53097545 194.54217625 -288.23568598 192.65418541 -286.94102478 190.76574707 C-281.57909211 182.9485288 -276.17843451 175.15931537 -270.75743103 167.38293457 C-263.4904495 156.95489381 -256.32116404 146.46257224 -249.17247009 135.95324707 C-241.66650801 124.92982827 -234.07471471 113.96568295 -226.42979431 103.03820801 C-223.32822878 98.59893022 -220.25134018 94.15208947 -217.28477478 89.62121582 C-216.79944275 88.88773926 -216.31411072 88.1542627 -215.81407166 87.39855957 C-214.93679089 86.06699505 -214.07105037 84.72771148 -213.22032166 83.37902832 C-210.37521477 79.08558861 -207.36675191 76.21064154 -202.50743103 74.50793457 C-198.0394047 73.99041929 -193.61882544 74.10818108 -189.12754822 74.21594238 C-187.77494664 74.23342365 -186.42231771 74.24888756 -185.06967163 74.26249695 C-182.16663716 74.29449005 -179.26406386 74.33770709 -176.36130524 74.38886261 C-171.76232792 74.46682271 -167.1636663 74.50100404 -162.56413269 74.52593994 C-160.98543901 74.53503333 -159.40674562 74.54417757 -157.82805252 74.55337143 C-156.64251054 74.56025773 -156.64251054 74.56025773 -155.43301821 74.56728315 C-144.73440024 74.63318991 -134.03717519 74.73628083 -123.33995056 74.92248535 C-116.11081623 75.04796956 -108.88354444 75.1158932 -101.65329289 75.1197021 C-97.83288893 75.12413929 -94.01781235 75.15767003 -90.1987381 75.26255035 C-75.06205451 76.3427649 -75.06205451 76.3427649 -61.20132446 71.98005676 C-57.56931036 68.35810063 -55.40139482 64.29981017 -53.45762444 59.59705448 C-51.85974955 56.08392523 -49.58334939 53.05499978 -47.31993103 49.94543457 C-46.58008972 48.8685437 -46.58008972 48.8685437 -45.82530212 47.76989746 C-39.70082371 38.87447489 -33.53758056 30.00608914 -27.35215759 21.1529541 C-25.70764288 18.79500382 -24.07139216 16.43157916 -22.43711853 14.06652832 C-21.56522211 12.81748164 -20.69287012 11.56875277 -19.81993103 10.32043457 C-19.09418884 9.27500488 -18.36844666 8.2295752 -17.62071228 7.15246582 C-12.23288518 0.41021268 -8.26617804 -0.07370131 0 0 Z " transform="translate(490.50743103027344,400.4920654296875)" style="fill: #394955;"/><path d="M0 0 C2.10026151 0.00480207 4.20055151 0.00209021 6.30079651 -0.00752258 C11.97392579 -0.01238025 17.64088451 0.08719479 23.31258488 0.20623469 C29.24995763 0.31286688 35.18748886 0.32252049 41.12567139 0.34266663 C52.35703266 0.39540291 63.5855643 0.5347569 74.81568217 0.70560795 C87.60612613 0.89595223 100.39670883 0.9891743 113.18821764 1.07443035 C139.48869793 1.25189066 165.78667057 1.55069807 192.08496094 1.92993164 C190.76878015 5.32453088 189.40255265 8.15889925 187.28417969 11.12524414 C186.72577393 11.91382813 186.16736816 12.70241211 185.59204102 13.51489258 C184.99157959 14.35310547 184.39111816 15.19131836 183.77246094 16.05493164 C182.49813707 17.85378323 181.22472085 19.65327809 179.95214844 21.45336914 C179.30600586 22.36570312 178.65986328 23.27803711 177.99414062 24.21801758 C175.08879959 28.34493934 172.23996434 32.50958105 169.39746094 36.67993164 C168.8622583 37.46424561 168.32705566 38.24855957 167.77563477 39.05664062 C166.71954853 40.60428934 165.66363652 42.15205695 164.60791016 43.69995117 C162.23283555 47.17765741 159.84703793 50.64795709 157.45996094 54.11743164 C157.01370361 54.76615234 156.56744629 55.41487305 156.10766602 56.08325195 C155.21441859 57.38163523 154.32110834 58.67997528 153.42773438 59.97827148 C151.60633597 62.62559127 149.7859101 65.27357905 147.96557617 67.92163086 C147.04332349 69.26317826 146.12095977 70.60464932 145.19848633 71.94604492 C142.96728513 75.19064077 140.73735557 78.43609163 138.51074219 81.68383789 C133.15118845 89.49699291 127.75327901 97.28240303 122.33496094 105.05493164 C115.06797941 115.4829724 107.89869395 125.97529397 100.75 136.48461914 C94.00832746 146.38558573 87.18404628 156.22805412 80.33496094 166.05493164 C73.69219997 175.58742778 67.12660322 185.17020109 60.59277344 194.77758789 C55.78429413 201.84724466 50.93643784 208.8897427 46.08496094 215.92993164 C42.06630889 212.16334558 39.01239195 208.18910149 35.95996094 203.61743164 C34.9822079 202.17464771 34.0043403 200.73194141 33.02636719 199.28930664 C32.28797607 198.19392578 32.28797607 198.19392578 31.53466797 197.07641602 C29.34043533 193.8275623 27.11987439 190.59704519 24.89746094 187.36743164 C24.45418457 186.72201416 24.0109082 186.07659668 23.55419922 185.41162109 C19.50667456 179.52488883 15.4203658 173.66540822 11.33496094 167.80493164 C4.06797941 157.37689088 -3.10130605 146.88456931 -10.25 136.37524414 C-16.99167152 126.47427904 -23.8158544 116.63173845 -30.66503906 106.80493164 C-36.75894619 98.06175255 -42.79451083 89.28088001 -48.77929688 80.46264648 C-49.6373291 79.19928467 -49.6373291 79.19928467 -50.51269531 77.91040039 C-51.0645752 77.09104004 -51.61645508 76.27167969 -52.18505859 75.42749023 C-53.39896339 73.67498585 -54.65396704 71.95058008 -55.93798828 70.2487793 C-56.58912598 69.37656738 -57.24026367 68.50435547 -57.91113281 67.60571289 C-58.50982178 66.82752197 -59.10851074 66.04933105 -59.7253418 65.24755859 C-60.91503906 62.92993164 -60.91503906 62.92993164 -60.73999023 60.35229492 C-59.95337818 58.04250955 -59.15802728 56.44971744 -57.71972656 54.49633789 C-57.25888672 53.85889648 -56.79804688 53.22145508 -56.32324219 52.56469727 C-55.81728516 51.88084961 -55.31132812 51.19700195 -54.79003906 50.49243164 C-53.69184869 48.97422692 -52.5955881 47.45462495 -51.50097656 45.93383789 C-50.91799805 45.12575684 -50.33501953 44.31767578 -49.734375 43.48510742 C-45.95996857 38.18412276 -42.33863286 32.77707992 -38.69580078 27.38525391 C-37.52678117 25.66108865 -36.33806044 23.9501227 -35.13036728 22.25282192 C-33.46282513 19.75158551 -32.04194394 17.34273174 -30.63165665 14.70530033 C-22.71306621 0.74217055 -15.35592277 -0.49366915 0 0 Z " transform="translate(514.9150390625,429.070068359375)" style="fill: #76867D;"/><path d="M0 0 C1.02470901 -0.00073013 2.04941803 -0.00146027 3.10517883 -0.00221252 C6.49285784 0.00127145 9.8791627 0.04017291 13.26660156 0.0793457 C15.61500294 0.08867089 17.96341404 0.09578839 20.31182861 0.1007843 C26.49345749 0.11987696 32.67449916 0.16899838 38.855896 0.2243042 C45.16328996 0.27544715 51.47077878 0.29828782 57.77832031 0.32348633 C70.15488043 0.37711404 82.53100467 0.46245511 94.90722656 0.56762695 C93.49630389 4.22584191 91.93602372 7.21179415 89.66894531 10.41918945 C89.02014404 11.3433667 88.37134277 12.26754395 87.70288086 13.21972656 C87.00718994 14.20078369 86.31149902 15.18184082 85.59472656 16.19262695 C84.13576648 18.26900963 82.67744202 20.34583906 81.21972656 22.4230957 C80.49140625 23.45869629 79.76308594 24.49429688 79.01269531 25.5612793 C76.00678793 29.85334139 73.04635086 34.1756277 70.09472656 38.50512695 C69.03878004 40.05203135 67.98279125 41.59890689 66.92675781 43.14575195 C66.42225098 43.8850293 65.91774414 44.62430664 65.39794922 45.38598633 C61.68801051 50.81540203 57.95587062 56.22960008 54.22802734 61.64672852 C52.93077098 63.53338528 51.63548151 65.42137612 50.34082031 67.30981445 C44.97888764 75.12703272 39.57823004 82.91624616 34.15722656 90.69262695 C26.90952478 101.09300149 19.75902001 111.5573073 12.62939453 122.03881836 C9.98010966 125.92899312 7.32110935 129.81243755 4.65722656 133.69262695 C4.21531982 134.33772217 3.77341309 134.98281738 3.31811523 135.64746094 C2.18787451 137.29215606 1.04805159 138.93025577 -0.09277344 140.56762695 C-0.54212911 141.28199795 -0.99148478 141.99636894 -1.45445728 142.73238754 C-3.09277344 144.56762695 -3.09277344 144.56762695 -5.11735821 145.05981827 C-5.89627328 145.0561311 -6.67518835 145.05244392 -7.47770691 145.04864502 C-8.37373123 145.05414368 -9.26975555 145.05964233 -10.19293213 145.06530762 C-11.66352081 145.04373596 -11.66352081 145.04373596 -13.16381836 145.02172852 C-14.7152932 145.02260468 -14.7152932 145.02260468 -16.29811096 145.02349854 C-19.72349382 145.02070751 -23.14801099 144.9895664 -26.57324219 144.95825195 C-28.94549585 144.95079322 -31.31775568 144.94509855 -33.6900177 144.94110107 C-39.93896444 144.92581599 -46.1875403 144.88650894 -52.43634033 144.84228516 C-58.81069928 144.80139468 -65.18511806 144.78310334 -71.55957031 144.76293945 C-84.07079641 144.72001787 -96.58176522 144.65249847 -109.09277344 144.56762695 C-107.99777239 142.83959119 -106.90179464 141.11217431 -105.80541992 139.38500977 C-105.19520493 138.42298645 -104.58498993 137.46096313 -103.95628357 136.4697876 C-101.10484996 132.02907206 -98.13813167 127.67072559 -95.15527344 123.31762695 C-94.51267578 122.37725586 -93.87007812 121.43688477 -93.20800781 120.46801758 C-87.87640038 112.67963848 -82.48634021 104.93251016 -77.08642578 97.19140625 C-70.5738053 87.84586722 -64.16441192 78.43130833 -57.7578125 69.01293945 C-50.34709266 58.12939547 -42.83451893 47.31774398 -35.30297852 36.51757812 C-29.79516348 28.6070909 -24.35814569 20.64987494 -18.96484375 12.66088867 C-18.3831543 11.80253418 -17.80146484 10.94417969 -17.20214844 10.05981445 C-16.69651367 9.31070801 -16.19087891 8.56160156 -15.66992188 7.78979492 C-15.14946289 7.05647949 -14.62900391 6.32316406 -14.09277344 5.56762695 C-13.6084082 4.70850204 -13.12404297 3.84937714 -12.625 2.96421814 C-8.75764476 -0.69598731 -5.14068312 -0.0955204 0 0 Z " transform="translate(310.0927734375,505.432373046875)" style="fill: #76867D;"/><path d="M0 0 C8.41779686 10.42554272 15.84404358 21.55800264 23.38037109 32.625 C25.78582624 36.15232404 28.20447409 39.67050774 30.625 43.1875 C31.07077393 43.83549561 31.51654785 44.48349121 31.97583008 45.15112305 C32.86955525 46.45024599 33.76335365 47.74931855 34.65722656 49.04833984 C36.47862497 51.69565963 38.29905083 54.34364741 40.11938477 56.99169922 C41.04163744 58.33324661 41.96400117 59.67471767 42.88647461 61.01611328 C45.11767581 64.26070913 47.34760537 67.50615999 49.57421875 70.75390625 C54.26243281 77.58838259 58.97444532 84.40542062 63.71411133 91.2043457 C70.01082324 100.2375109 76.28228822 109.28723067 82.5 118.375 C83.15323242 119.32648926 83.80646484 120.27797852 84.47949219 121.25830078 C85.07407227 122.1295459 85.66865234 123.00079102 86.28125 123.8984375 C87.07112305 125.05351807 87.07112305 125.05351807 87.87695312 126.23193359 C89 128 89 128 89 129 C30.59 129 -27.82 129 -88 129 C-84.68818716 123.0387369 -81.46347333 117.58899285 -77.5 112.125 C-76.43757742 110.64019844 -75.37642611 109.15448659 -74.31640625 107.66796875 C-73.77129395 106.90403809 -73.22618164 106.14010742 -72.66455078 105.35302734 C-69.87680304 101.41223639 -67.15643558 97.42594752 -64.4375 93.4375 C-63.89432129 92.64126221 -63.35114258 91.84502441 -62.79150391 91.0246582 C-61.71252529 89.44268372 -60.63374598 87.86057328 -59.55517578 86.27832031 C-55.82601621 80.81513081 -52.07059873 75.36993038 -48.32080078 69.92089844 C-47.02354442 68.03424168 -45.72825495 66.14625084 -44.43359375 64.2578125 C-39.07166167 56.4405951 -33.67112303 48.65129692 -28.25 40.875 C-22.09518604 32.04549237 -16.00203236 23.17608183 -9.95996094 14.26904297 C-6.69951987 9.46738505 -3.39590272 4.70693862 0 0 Z " transform="translate(435,518)" style="fill: #FAFBF7;"/><path d="M0 0 C0.68287582 -0.00095673 1.36575165 -0.00191345 2.06932068 -0.00289917 C3.5126047 -0.00357973 4.95589178 -0.0017341 6.39916992 0.00244141 C8.61579203 0.00779968 10.83221227 0.00248807 13.04882812 -0.00390625 C14.4492192 -0.00324561 15.84961015 -0.00196473 17.25 0 C18.53076416 0.00112793 19.81152832 0.00225586 21.13110352 0.00341797 C24.05859375 0.1328125 24.05859375 0.1328125 25.05859375 1.1328125 C25.15942139 3.56941696 25.19831978 5.97705951 25.19140625 8.4140625 C25.19236298 9.14274536 25.1933197 9.87142822 25.19430542 10.62219238 C25.1949871 12.1656096 25.19313363 13.70902967 25.18896484 15.25244141 C25.18361637 17.6227865 25.18891017 19.99294209 25.1953125 22.36328125 C25.19465172 23.85937542 25.19337055 25.35546947 25.19140625 26.8515625 C25.19343048 27.56509888 25.19545471 28.27863525 25.19754028 29.01379395 C25.17354566 34.01786059 25.17354566 34.01786059 24.05859375 35.1328125 C21.69460907 35.2335937 19.36048064 35.27254465 16.99609375 35.265625 C16.28960693 35.26658173 15.58312012 35.26753845 14.85522461 35.26852417 C13.35888582 35.26920583 11.86254408 35.26735255 10.36621094 35.26318359 C8.06829218 35.25783507 5.77056889 35.26312901 3.47265625 35.26953125 C2.02213498 35.26887047 0.57161384 35.2675893 -0.87890625 35.265625 C-1.91640015 35.26866135 -1.91640015 35.26866135 -2.97485352 35.27175903 C-7.82645401 35.24776474 -7.82645401 35.24776474 -8.94140625 34.1328125 C-9.02984418 31.68450824 -9.05669377 29.26460651 -9.0390625 26.81640625 C-9.03764755 26.08535172 -9.0362326 25.35429718 -9.03477478 24.60108948 C-9.02916033 22.25745618 -9.01660547 19.91391711 -9.00390625 17.5703125 C-8.99889311 15.98502742 -8.99432988 14.39974084 -8.99023438 12.81445312 C-8.97918622 8.9205364 -8.96191197 5.02669045 -8.94140625 1.1328125 C-5.97890538 -0.34843794 -3.3022773 0.00290566 0 0 Z " transform="translate(751.94140625,572.8671875)" style="fill: #77877E;"/><path d="M0 0 C0.98746216 -0.00143509 0.98746216 -0.00143509 1.99487305 -0.00289917 C3.38688248 -0.00357975 4.7788951 -0.00173396 6.17089844 0.00244141 C8.30410883 0.00779146 10.43710867 0.00249238 12.5703125 -0.00390625 C13.92187547 -0.00324545 15.2734383 -0.00196424 16.625 0 C18.47544922 0.00169189 18.47544922 0.00169189 20.36328125 0.00341797 C23.3125 0.1328125 23.3125 0.1328125 25.3125 1.1328125 C25.33715288 5.81420504 25.35533739 10.49556009 25.36743164 15.17700195 C25.37247157 16.77075864 25.3793035 18.36451069 25.38793945 19.95825195 C25.40001999 22.24431503 25.40573155 24.53031717 25.41015625 26.81640625 C25.41531754 27.53307968 25.42047882 28.24975311 25.42579651 28.98814392 C25.42599263 30.70344922 25.37442007 32.41862516 25.3125 34.1328125 C23.63576351 35.80954899 21.58394924 35.26069067 19.34594727 35.27175903 C18.30845337 35.26872269 18.30845337 35.26872269 17.25 35.265625 C16.54351318 35.26658173 15.83702637 35.26753845 15.10913086 35.26852417 C13.61279207 35.26920583 12.11645033 35.26735255 10.62011719 35.26318359 C8.32219843 35.25783507 6.02447514 35.26312901 3.7265625 35.26953125 C2.27604123 35.26887047 0.82552009 35.2675893 -0.625 35.265625 C-1.6624939 35.26866135 -1.6624939 35.26866135 -2.72094727 35.27175903 C-7.57254776 35.24776474 -7.57254776 35.24776474 -8.6875 34.1328125 C-8.77593793 31.68450824 -8.80278752 29.26460651 -8.78515625 26.81640625 C-8.7837413 26.08535172 -8.78232635 25.35429718 -8.78086853 24.60108948 C-8.77525408 22.25745618 -8.76269922 19.91391711 -8.75 17.5703125 C-8.74498686 15.98502742 -8.74042363 14.39974084 -8.73632812 12.81445312 C-8.72527997 8.9205364 -8.70800572 5.02669045 -8.6875 1.1328125 C-5.78524449 -0.31831526 -3.23838766 0.00296091 0 0 Z " transform="translate(706.6875,572.8671875)" style="fill: #77867D;"/><path d="M0 0 C1.0374939 0.00303635 1.0374939 0.00303635 2.09594727 0.00613403 C2.80243408 0.00517731 3.5089209 0.00422058 4.23681641 0.00323486 C5.7331552 0.00255321 7.22949694 0.00440649 8.72583008 0.00857544 C11.02374884 0.01392396 13.32147213 0.00863003 15.61938477 0.00222778 C17.06990603 0.00288857 18.52042718 0.00416974 19.97094727 0.00613403 C20.66260986 0.0041098 21.35427246 0.00208557 22.06689453 0 C26.91849503 0.0239943 26.91849503 0.0239943 28.03344727 1.13894653 C28.13422847 3.50293122 28.17317942 5.83705964 28.16625977 8.20144653 C28.16721649 8.90793335 28.16817322 9.61442017 28.16915894 10.34231567 C28.16984059 11.83865447 28.16798731 13.3349962 28.16381836 14.83132935 C28.15846984 17.1292481 28.16376377 19.42697139 28.17016602 21.72488403 C28.16950523 23.1754053 28.16822406 24.62592645 28.16625977 26.07644653 C28.168284 26.76810913 28.17030823 27.45977173 28.1723938 28.1723938 C28.1483995 33.0239943 28.1483995 33.0239943 27.03344727 34.13894653 C24.66946258 34.23972773 22.33533415 34.27867869 19.97094727 34.27175903 C19.26446045 34.27271576 18.55797363 34.27367249 17.83007812 34.2746582 C16.33373933 34.27533986 14.8373976 34.27348658 13.34106445 34.26931763 C11.04314569 34.26396911 8.7454224 34.26926304 6.44750977 34.27566528 C4.9969885 34.2750045 3.54646735 34.27372333 2.09594727 34.27175903 C1.05845337 34.27479538 1.05845337 34.27479538 0 34.27789307 C-4.8516005 34.25389877 -4.8516005 34.25389877 -5.96655273 33.13894653 C-6.06733393 30.77496185 -6.10628489 28.44083342 -6.09936523 26.07644653 C-6.10032196 25.36995972 -6.10127869 24.6634729 -6.1022644 23.93557739 C-6.10294606 22.4392386 -6.10109278 20.94289686 -6.09692383 19.44656372 C-6.09157531 17.14864496 -6.09686924 14.85092167 -6.10327148 12.55300903 C-6.1026107 11.10248777 -6.10132953 9.65196662 -6.09936523 8.20144653 C-6.10138947 7.50978394 -6.1034137 6.81812134 -6.10549927 6.10549927 C-6.07692251 0.32733401 -5.77816526 0.02857676 0 0 Z " transform="translate(748.966552734375,616.8610534667969)" style="fill: #76867D;"/><path d="M0 0 C1.0374939 0.00303635 1.0374939 0.00303635 2.09594727 0.00613403 C2.80243408 0.00517731 3.5089209 0.00422058 4.23681641 0.00323486 C5.7331552 0.00255321 7.22949694 0.00440649 8.72583008 0.00857544 C11.02374884 0.01392396 13.32147213 0.00863003 15.61938477 0.00222778 C17.06990603 0.00288857 18.52042718 0.00416974 19.97094727 0.00613403 C20.66260986 0.0041098 21.35427246 0.00208557 22.06689453 0 C26.91849503 0.0239943 26.91849503 0.0239943 28.03344727 1.13894653 C28.13422847 3.50293122 28.17317942 5.83705964 28.16625977 8.20144653 C28.16721649 8.90793335 28.16817322 9.61442017 28.16915894 10.34231567 C28.16984059 11.83865447 28.16798731 13.3349962 28.16381836 14.83132935 C28.15846984 17.1292481 28.16376377 19.42697139 28.17016602 21.72488403 C28.16950523 23.1754053 28.16822406 24.62592645 28.16625977 26.07644653 C28.168284 26.76810913 28.17030823 27.45977173 28.1723938 28.1723938 C28.1483995 33.0239943 28.1483995 33.0239943 27.03344727 34.13894653 C24.66946258 34.23972773 22.33533415 34.27867869 19.97094727 34.27175903 C19.26446045 34.27271576 18.55797363 34.27367249 17.83007812 34.2746582 C16.33373933 34.27533986 14.8373976 34.27348658 13.34106445 34.26931763 C11.04314569 34.26396911 8.7454224 34.26926304 6.44750977 34.27566528 C4.9969885 34.2750045 3.54646735 34.27372333 2.09594727 34.27175903 C1.05845337 34.27479538 1.05845337 34.27479538 0 34.27789307 C-4.8516005 34.25389877 -4.8516005 34.25389877 -5.96655273 33.13894653 C-6.06733393 30.77496185 -6.10628489 28.44083342 -6.09936523 26.07644653 C-6.10032196 25.36995972 -6.10127869 24.6634729 -6.1022644 23.93557739 C-6.10294606 22.4392386 -6.10109278 20.94289686 -6.09692383 19.44656372 C-6.09157531 17.14864496 -6.09686924 14.85092167 -6.10327148 12.55300903 C-6.1026107 11.10248777 -6.10132953 9.65196662 -6.09936523 8.20144653 C-6.10138947 7.50978394 -6.1034137 6.81812134 -6.10549927 6.10549927 C-6.07692251 0.32733401 -5.77816526 0.02857676 0 0 Z " transform="translate(703.966552734375,616.8610534667969)" style="fill: #76867D;"/><path d="M0 0 C1.27423828 -0.00193359 1.27423828 -0.00193359 2.57421875 -0.00390625 C3.91419922 0.00189453 3.91419922 0.00189453 5.28125 0.0078125 C6.17457031 0.00394531 7.06789063 0.00007812 7.98828125 -0.00390625 C8.83777344 -0.00261719 9.68726563 -0.00132812 10.5625 0 C11.34689453 0.00112793 12.13128906 0.00225586 12.93945312 0.00341797 C14.78125 0.1328125 14.78125 0.1328125 15.78125 1.1328125 C15.86794432 2.6215311 15.88828494 4.1142575 15.87890625 5.60546875 C15.87640869 6.41508057 15.87391113 7.22469238 15.87133789 8.05883789 C15.86223389 9.09387451 15.85312988 10.12891113 15.84375 11.1953125 C15.823125 14.4746875 15.8025 17.7540625 15.78125 21.1328125 C8.85125 21.1328125 1.92125 21.1328125 -5.21875 21.1328125 C-5.239375 17.8534375 -5.26 14.5740625 -5.28125 11.1953125 C-5.290354 10.16027588 -5.29945801 9.12523926 -5.30883789 8.05883789 C-5.31258423 6.84442017 -5.31258423 6.84442017 -5.31640625 5.60546875 C-5.32164307 4.77281494 -5.32687988 3.94016113 -5.33227539 3.08227539 C-5.11875797 -0.5842549 -3.18885094 0.00458545 0 0 Z " transform="translate(442.21875,582.8671875)" style="fill: #77877E;"/><path d="M0 0 C1.27423828 -0.00193359 1.27423828 -0.00193359 2.57421875 -0.00390625 C3.91419922 0.00189453 3.91419922 0.00189453 5.28125 0.0078125 C6.17457031 0.00394531 7.06789063 0.00007812 7.98828125 -0.00390625 C8.83777344 -0.00261719 9.68726563 -0.00132812 10.5625 0 C11.34689453 0.00112793 12.13128906 0.00225586 12.93945312 0.00341797 C14.78125 0.1328125 14.78125 0.1328125 15.78125 1.1328125 C15.86794432 2.6215311 15.88828494 4.1142575 15.87890625 5.60546875 C15.87640869 6.41508057 15.87391113 7.22469238 15.87133789 8.05883789 C15.86223389 9.09387451 15.85312988 10.12891113 15.84375 11.1953125 C15.823125 14.4746875 15.8025 17.7540625 15.78125 21.1328125 C8.85125 21.1328125 1.92125 21.1328125 -5.21875 21.1328125 C-5.239375 17.8534375 -5.26 14.5740625 -5.28125 11.1953125 C-5.290354 10.16027588 -5.29945801 9.12523926 -5.30883789 8.05883789 C-5.31258423 6.84442017 -5.31258423 6.84442017 -5.31640625 5.60546875 C-5.32164307 4.77281494 -5.32687988 3.94016113 -5.33227539 3.08227539 C-5.11875797 -0.5842549 -3.18885094 0.00458545 0 0 Z " transform="translate(415.21875,582.8671875)" style="fill: #79887F;"/><path d="M0 0 C0.83265381 0.00523682 1.66530762 0.01047363 2.52319336 0.01586914 C3.42231445 0.0190918 4.32143555 0.02231445 5.24780273 0.02563477 C6.66609375 0.03820312 6.66609375 0.03820312 8.11303711 0.05102539 C9.06243164 0.05553711 10.01182617 0.06004883 10.98999023 0.06469727 C13.34356776 0.07652429 15.69702188 0.09300514 18.05053711 0.11352539 C18.07941857 3.42600726 18.0972951 6.73845706 18.11303711 10.05102539 C18.12141602 10.99655273 18.12979492 11.94208008 18.13842773 12.91625977 C18.14326172 14.26494141 18.14326172 14.26494141 18.14819336 15.64086914 C18.15604858 16.88984985 18.15604858 16.88984985 18.1640625 18.1640625 C18.05053711 20.11352539 18.05053711 20.11352539 17.05053711 21.11352539 C15.64704976 21.2121267 14.23873234 21.24431476 12.83178711 21.24633789 C11.55754883 21.24827148 11.55754883 21.24827148 10.25756836 21.25024414 C8.91758789 21.24444336 8.91758789 21.24444336 7.55053711 21.23852539 C6.6572168 21.24239258 5.76389648 21.24625977 4.84350586 21.25024414 C3.99401367 21.24895508 3.14452148 21.24766602 2.26928711 21.24633789 C1.48489258 21.24520996 0.70049805 21.24408203 -0.10766602 21.24291992 C-1.94946289 21.11352539 -1.94946289 21.11352539 -2.94946289 20.11352539 C-3.0480642 18.71003804 -3.08025226 17.30172062 -3.08227539 15.89477539 C-3.08356445 15.0452832 -3.08485352 14.19579102 -3.08618164 13.32055664 C-3.08231445 12.42723633 -3.07844727 11.53391602 -3.07446289 10.61352539 C-3.07833008 9.72020508 -3.08219727 8.82688477 -3.08618164 7.90649414 C-3.08489258 7.05700195 -3.08360352 6.20750977 -3.08227539 5.33227539 C-3.08114746 4.54788086 -3.08001953 3.76348633 -3.07885742 2.95532227 C-2.89785528 0.37894455 -2.57608446 0.15001619 0 0 Z " transform="translate(439.949462890625,609.886474609375)" style="fill: #77877E;"/><path d="M0 0 C3.31248187 -0.02888146 6.62493167 -0.04675799 9.9375 -0.0625 C10.88302734 -0.07087891 11.82855469 -0.07925781 12.80273438 -0.08789062 C14.15141602 -0.09272461 14.15141602 -0.09272461 15.52734375 -0.09765625 C16.77632446 -0.10551147 16.77632446 -0.10551147 18.05053711 -0.11352539 C20 0 20 0 21 1 C21.09860131 2.40348735 21.13078937 3.81180477 21.1328125 5.21875 C21.13474609 6.49298828 21.13474609 6.49298828 21.13671875 7.79296875 C21.13285156 8.68628906 21.12898438 9.57960938 21.125 10.5 C21.13080078 11.83998047 21.13080078 11.83998047 21.13671875 13.20703125 C21.13542969 14.05652344 21.13414062 14.90601563 21.1328125 15.78125 C21.13168457 16.56564453 21.13055664 17.35003906 21.12939453 18.15820312 C21 20 21 20 20 21 C18.59651265 21.09860131 17.18819523 21.13078937 15.78125 21.1328125 C14.50701172 21.13474609 14.50701172 21.13474609 13.20703125 21.13671875 C11.86705078 21.13091797 11.86705078 21.13091797 10.5 21.125 C9.60667969 21.12886719 8.71335937 21.13273438 7.79296875 21.13671875 C6.94347656 21.13542969 6.09398437 21.13414062 5.21875 21.1328125 C4.43435547 21.13168457 3.64996094 21.13055664 2.84179688 21.12939453 C1 21 1 21 0 20 C-0.08669432 18.5112814 -0.10703494 17.018555 -0.09765625 15.52734375 C-0.09443359 14.62822266 -0.09121094 13.72910156 -0.08789062 12.80273438 C-0.07951172 11.85720703 -0.07113281 10.91167969 -0.0625 9.9375 C-0.05798828 8.98810547 -0.05347656 8.03871094 -0.04882812 7.06054688 C-0.0370011 4.70696935 -0.02052025 2.35351523 0 0 Z " transform="translate(410,610)" style="fill: #78887F;"/></svg>