<svg id="svg" version="1.1" xmlns="http://www.w3.org/2000/svg" style="display: block;" viewBox="0 0 1080 1080"><path d="M0 0 C356.4 0 712.8 0 1080 0 C1080 356.4 1080 712.8 1080 1080 C723.6 1080 367.2 1080 0 1080 C0 723.6 0 367.2 0 0 Z " transform="translate(0,0)" style="fill: #FBFCF8;"/><path d="M0 0 C1.9375 1.125 1.9375 1.125 3 3 C3.32378583 7.48856043 2.62277723 10.57088004 0.875 14.6875 C-1.36000764 20.22753311 -3.28418617 25.79718997 -5.0625 31.5 C-5.31926514 32.32209961 -5.57603027 33.14419922 -5.84057617 33.99121094 C-6.91701311 37.45708232 -7.97803373 40.92697474 -9.0234375 44.40234375 C-9.98957917 47.61042957 -10.98576502 50.80677256 -12 54 C-12.2273584 54.7223584 -12.4547168 55.4447168 -12.68896484 56.18896484 C-20.14572928 79.5841442 -31.21254132 98.0733486 -48.04296875 115.83203125 C-50.21661391 118.13384032 -52.31472185 120.48859617 -54.390625 122.87890625 C-58.02099605 127.05122743 -61.76804907 131.10186564 -65.5625 135.125 C-66.25214844 135.85638184 -66.94179688 136.58776367 -67.65234375 137.34130859 C-72.21303533 142.1578082 -76.82028739 146.9240306 -81.5 151.625 C-82.03826416 152.16785645 -82.57652832 152.71071289 -83.13110352 153.27001953 C-87.25326806 157.37633691 -91.58747763 161.20913916 -96 165 C-95.0112085 164.80889648 -94.02241699 164.61779297 -93.00366211 164.42089844 C-39.28598569 154.0835183 5.23670516 149.21309733 57.80429077 166.96440125 C63.58338298 168.89905551 69.41141306 170.64121901 75.2677002 172.32629395 C87.99327813 175.98991719 87.99327813 175.98991719 90 179 C90.4375 181.4375 90.4375 181.4375 90 184 C86.52412307 188.62231072 81.37601138 190.28660355 76.20703125 192.44921875 C75.23665421 192.86355164 74.26627716 193.27788452 73.26649475 193.70477295 C70.1198081 195.04364174 66.96683254 196.3667549 63.8125 197.6875 C62.7430011 198.13819855 61.6735022 198.58889709 60.57159424 199.05325317 C38.48836031 208.35570903 16.63274022 217.46676124 -7 222 C-7.83917969 222.16226074 -8.67835938 222.32452148 -9.54296875 222.49169922 C-35.90283086 227.38119125 -63.60469648 227.17636441 -88 215 C-88.87269531 214.56945312 -89.74539063 214.13890625 -90.64453125 213.6953125 C-97.43908511 210.17924966 -103.21686936 205.98954647 -109 201 C-110.28777344 199.89591797 -110.28777344 199.89591797 -111.6015625 198.76953125 C-116.75990096 194.24234901 -121.95561839 189.5844607 -126 184 C-126 183.34 -126 182.68 -126 182 C-126.64396729 182.17539307 -127.28793457 182.35078613 -127.95141602 182.53149414 C-158.76509793 190.81809019 -190.31689767 196.29988047 -222 200 C-223.12519043 200.1335791 -224.25038086 200.2671582 -225.40966797 200.40478516 C-256.44505927 203.95531448 -287.8077879 204.67602503 -319 206 C-317.71428101 206.43530029 -317.71428101 206.43530029 -316.40258789 206.87939453 C-299.85299397 212.51633576 -283.46699648 218.40249259 -267.375 225.25 C-266.71428497 225.52942444 -266.05356995 225.80884888 -265.37283325 226.09674072 C-236.56718107 238.32168159 -212.99411149 254.07998948 -192.63671875 278.078125 C-190.63609463 280.42730654 -188.56989826 282.71167027 -186.5 285 C-183.79640757 287.99130581 -181.1269376 291.00382034 -178.5 294.0625 C-175.18149691 297.9107172 -171.54476934 301.37120538 -167.8203125 304.82421875 C-165.69337577 307.36650149 -164.98979497 308.67826329 -165 312 C-166.55957031 314.66162109 -166.55957031 314.66162109 -169 317 C-172.21826172 317.35083008 -172.21826172 317.35083008 -176.0546875 316.95703125 C-176.75326874 316.89151566 -177.45184998 316.82600006 -178.17160034 316.75849915 C-180.45189152 316.53502099 -182.72485052 316.27057802 -185 316 C-186.53544535 315.83088641 -188.07092738 315.66210562 -189.60644531 315.49365234 C-194.45299218 314.94398243 -199.28912819 314.3235744 -204.125 313.6875 C-204.98094757 313.57573425 -205.83689514 313.46396851 -206.71878052 313.34881592 C-252.67929763 307.32255898 -302.10148915 296.65422361 -333.125 259.125 C-341.85264422 247.65958003 -347.44628872 233.79410243 -351.6875 220.125 C-351.94370117 219.311521 -352.19990234 218.49804199 -352.46386719 217.65991211 C-353.89689471 212.67707368 -354.11617087 209.07350393 -353 204 C-353.77641846 204.01305176 -354.55283691 204.02610352 -355.3527832 204.03955078 C-366.00115803 204.13630532 -376.56599989 203.57950251 -387.1875 202.875 C-388.14875793 202.81164459 -389.11001587 202.74828918 -390.10040283 202.68301392 C-434.64924055 199.68139322 -479.62679879 194.27099301 -523.25146484 184.59130859 C-526.06358923 183.98631967 -528.88138958 183.43268038 -531.70703125 182.89453125 C-550.63761885 179.28276415 -569.3043856 174.65450349 -588 170 C-586.93523437 170.73863281 -585.87046875 171.47726562 -584.7734375 172.23828125 C-575.26697724 178.86856912 -566.01335661 185.71446136 -557 193 C-555.58654297 194.13888672 -555.58654297 194.13888672 -554.14453125 195.30078125 C-544.8714369 202.83433409 -535.71241925 210.52828199 -526.78125 218.46484375 C-525.40521515 219.65076852 -523.98264742 220.78282774 -522.54296875 221.890625 C-503.75784703 237.47275361 -493.04672272 264.20210973 -483.27685547 285.76416016 C-480.20006547 292.52705536 -476.97137577 299.03280796 -473.109375 305.38671875 C-471.68618906 308.73922365 -471.73449153 311.39422372 -472 315 C-473.125 316.9375 -473.125 316.9375 -475 318 C-481.27939183 318.93139305 -486.19794557 315.90248763 -491.6875 313.25 C-493.84026843 312.23381624 -495.99395007 311.21956534 -498.1484375 310.20703125 C-499.83018066 309.41353271 -499.83018066 309.41353271 -501.54589844 308.60400391 C-506.12290278 306.47855023 -510.74328579 304.45989252 -515.36865234 302.44238281 C-556.03069284 284.67399931 -599.05554289 259.81757663 -617 217 C-623.08065454 200.86344462 -628.61309036 176.83927107 -623 160 C-623.84393311 159.81131348 -624.68786621 159.62262695 -625.55737305 159.42822266 C-638.00120867 156.49086772 -650.08488967 152.55749225 -662.22241211 148.55712891 C-665.76483211 147.39069588 -669.31083557 146.2357252 -672.85742188 145.08203125 C-689.05868436 139.78342739 -705.05802624 134.03089539 -721 128 C-722.49738382 127.43708874 -723.9948489 126.87439356 -725.49243164 126.31201172 C-729.04310141 124.97466698 -732.58569685 123.61718689 -736.125 122.25 C-736.74301483 122.01142273 -737.36102966 121.77284546 -737.99777222 121.52703857 C-753.18430038 115.64950566 -768.15063942 109.25675221 -783.10479736 102.81555176 C-786.38986224 101.4019085 -789.67743997 99.99413099 -792.96484375 98.5859375 C-794.12491943 98.08884277 -795.28499512 97.59174805 -796.48022461 97.07958984 C-797.72751343 96.54519287 -797.72751343 96.54519287 -799 96 C-798.34 94.02 -797.68 92.04 -797 90 C-788.41223789 92.64533743 -780.24429923 96.20815496 -772 99.75 C-769.05406181 101.00939862 -766.10708548 102.26635997 -763.16015625 103.5234375 C-762.44674576 103.82814972 -761.73333527 104.13286194 -760.99830627 104.44680786 C-753.36261779 107.70553779 -745.69182936 110.87629525 -738 114 C-738.07734375 113.00871094 -738.1546875 112.01742187 -738.234375 110.99609375 C-738.22042 106.36187075 -736.46327896 103.04900982 -734.25 99.0625 C-733.85095459 98.3295874 -733.45190918 97.5966748 -733.04077148 96.84155273 C-724.12431127 80.95394897 -712.48073173 66.80058355 -697 57 C-696.13246094 56.42636719 -695.26492188 55.85273438 -694.37109375 55.26171875 C-681.5439042 47.21573476 -666.86337649 42.512873 -652 40 C-650.92492187 39.80792969 -649.84984375 39.61585938 -648.7421875 39.41796875 C-619.83329506 34.57660002 -590.07342634 36.55985672 -561.0625 39.25 C-559.90264587 39.35242004 -558.74279175 39.45484009 -557.54779053 39.56036377 C-554.22875351 39.85851046 -550.91332698 40.18231748 -547.59765625 40.515625 C-546.10150032 40.64875595 -546.10150032 40.64875595 -544.57511902 40.78457642 C-539.34026559 41.34874732 -535.65400294 41.84125285 -532 46 C-531.625 49.375 -531.625 49.375 -533 53 C-535.68973443 55.4627236 -538.87985874 57.13532455 -542 59 C-544.50345318 60.65245145 -546.97016518 62.35673292 -549.4375 64.0625 C-550.11965576 64.53010742 -550.80181152 64.99771484 -551.50463867 65.47949219 C-555.93666466 68.52959811 -560.29565511 71.665937 -564.63012695 74.8527832 C-584.68825404 89.57080207 -605.68384893 102.51674252 -630.3125 107.625 C-631.31869385 107.83882324 -632.3248877 108.05264648 -633.36157227 108.27294922 C-639.80781691 109.61723402 -646.22135686 110.71587932 -652.75390625 111.546875 C-656.16457106 112.02297261 -659.50103096 112.68628536 -662.875 113.375 C-681.86427511 117.11826573 -701.66395525 119.41758901 -721 120 C-706.06323774 125.81122029 -690.97909037 131.13704345 -675.8125 136.3125 C-674.92990509 136.6143219 -674.04731018 136.9161438 -673.13796997 137.22711182 C-659.13065892 142.011999 -645.07963445 146.48328745 -630.8125 150.4375 C-629.72445068 150.74042969 -628.63640137 151.04335938 -627.51538086 151.35546875 C-625.33793016 151.96150205 -623.1602827 152.56682893 -620.98242188 153.17138672 C-618.41971697 153.88338905 -615.85798379 154.59868974 -613.296875 155.31640625 C-609.68094796 156.32889883 -606.06192167 157.32973135 -602.44140625 158.32568359 C-600.71658932 158.80207803 -598.99271791 159.28190209 -597.26953125 159.76416016 C-560.64936863 170.00093792 -523.44089453 177.48103781 -486 184 C-485.96463135 182.9466748 -485.9292627 181.89334961 -485.89282227 180.80810547 C-484.79685717 152.06571818 -473.41966938 126.31998763 -452.3828125 106.5390625 C-449.66176187 104.23787725 -446.87971612 102.09916149 -444 100 C-442.9378125 99.22398437 -441.875625 98.44796875 -440.78125 97.6484375 C-413.736201 78.51975953 -382.77020037 68.19604751 -351 60 C-348.71981986 59.40323034 -346.43986497 58.80559923 -344.16015625 58.20703125 C-339.44089749 56.96973222 -334.71832561 55.74620044 -329.99169922 54.53735352 C-328.31077687 54.08384652 -326.65168147 53.55056049 -325 53 C-317.13636917 52.13101181 -317.13636917 52.13101181 -313.875 54.625 C-312.69718018 57.8219395 -313.1890078 59.70938123 -314 63 C-315.52246094 65.29443359 -315.52246094 65.29443359 -317.484375 67.5234375 C-320.73041751 71.38949436 -323.708676 75.3465014 -326.515625 79.5390625 C-326.89807373 80.10921082 -327.28052246 80.67935913 -327.67456055 81.26678467 C-328.46352568 82.44625721 -329.25126992 83.62654727 -330.0378418 84.80761719 C-340.4124983 100.36228848 -350.83802082 115.64215803 -364 129 C-364.763125 129.77601563 -365.52625 130.55203125 -366.3125 131.3515625 C-377.59494218 142.13849201 -391.82963113 149.62042056 -405.30078125 157.3046875 C-409.08430834 159.46381199 -412.82918227 161.68066037 -416.56567383 163.91992188 C-431.48667746 172.83372361 -447.11961786 179.9739595 -463 187 C-455.66402832 188.61129605 -448.35578882 189.64208785 -440.890625 190.4375 C-439.72972351 190.56310303 -438.56882202 190.68870605 -437.3727417 190.81811523 C-434.90875328 191.08272336 -432.4444917 191.34479863 -429.97998047 191.60449219 C-426.35650183 191.9887071 -422.73496849 192.38836519 -419.11328125 192.7890625 C-386.07798974 196.35474946 -353.03453678 197.38813461 -319.8246994 197.31785583 C-317.13640707 197.31239624 -314.44812357 197.31004308 -311.75982666 197.3079834 C-286.77834855 197.27816683 -261.89265286 197.04804897 -237.04119873 194.2310791 C-234.95935541 193.99539873 -232.87659026 193.76986794 -230.79345703 193.54589844 C-221.50405618 192.53537661 -212.25042001 191.32348578 -203 190 C-201.6529958 189.80988869 -200.30599058 189.61978462 -198.95898438 189.4296875 C-161.94912592 185.30647302 -161.94912592 185.30647302 -127 174 C-127.2165625 173.00226563 -127.433125 172.00453125 -127.65625 170.9765625 C-133.53350896 141.65994473 -130.81440906 112.38793196 -114.125 87.1875 C-112.45572893 84.76204478 -110.74228489 82.37342585 -109 80 C-108.33742188 79.0925 -107.67484375 78.185 -106.9921875 77.25 C-96.80059292 64.14081167 -84.27292858 51.95943001 -71 42 C-70.46938965 41.59297852 -69.9387793 41.18595703 -69.39208984 40.76660156 C-59.87482115 33.47299378 -49.9235131 27.00096591 -39.73339844 20.69335938 C-35.61740348 18.14347182 -31.51195365 15.57676726 -27.40600586 13.01074219 C-25.30364462 11.69730464 -23.20033219 10.38538806 -21.09594727 9.07519531 C-20.12971436 8.47288086 -19.16348145 7.87056641 -18.16796875 7.25 C-16.80998169 6.40417358 -16.80998169 6.40417358 -15.42456055 5.54125977 C-13.42209658 4.26832098 -11.47287446 2.95221238 -9.53125 1.58984375 C-6.15591272 -0.53015976 -3.90870213 -0.51624368 0 0 Z " transform="translate(888,405)" style="fill: #7B8A81;"/><path d="M0 0 C1.05477539 0.16435547 1.05477539 0.16435547 2.13085938 0.33203125 C13.95165471 2.32488938 25.38815682 6.40198763 36.75 10.125 C48.49134662 13.94006897 60.28753624 17.46591909 72.1875 20.75 C69.53115007 22.86100347 67.02656817 24.40450594 63.90405273 25.72363281 C62.64509438 26.25999359 62.64509438 26.25999359 61.36070251 26.80718994 C60.45663162 27.18534851 59.55256073 27.56350708 58.62109375 27.953125 C57.67299332 28.3540033 56.72489288 28.75488159 55.74806213 29.16790771 C53.73429911 30.01778955 51.71936821 30.86490863 49.70336914 31.70947266 C46.68516745 32.97477634 43.67144819 34.25028881 40.65820312 35.52734375 C7.86045456 49.37040335 7.86045456 49.37040335 -8.375 53 C-9.435979 53.24250488 -10.49695801 53.48500977 -11.59008789 53.73486328 C-14.66053673 54.42502388 -17.73527536 55.09081787 -20.8125 55.75 C-21.62041992 55.93079102 -22.42833984 56.11158203 -23.26074219 56.29785156 C-51.75566842 62.57047646 -81.06443622 59.42021152 -105.95703125 43.7734375 C-115.03767426 37.39793709 -123.09769509 29.69471631 -130.8125 21.75 C-125.44037327 15.51833299 -117.88333567 14.08441353 -110.1875 12.3125 C-109.3934375 12.12107422 -108.599375 11.92964844 -107.78125 11.73242188 C-90.80574741 7.74653259 -73.5863275 4.94433232 -56.33691406 2.45751953 C-53.18086502 1.99903613 -50.02812221 1.52111414 -46.875 1.04296875 C-31.30607948 -1.25217994 -15.62238684 -2.85649675 0 0 Z " transform="translate(898.8125,565.25)" style="fill: #FAFCF7;"/><path d="M0 0 C-1.36067093 4.08201279 -3.2798095 4.65440898 -6.9375 6.875 C-12.72076671 10.462099 -18.26229577 14.28897975 -23.75 18.3125 C-56.17731931 41.93308199 -85.32540118 52.78355653 -124.85229492 59.10717773 C-127.66756431 59.55929841 -130.48119873 60.02078967 -133.29492188 60.48242188 C-148.96361833 63.01602528 -164.67291535 65.04240147 -180.5625 65.25 C-181.60166313 65.26443398 -181.60166313 65.26443398 -182.66181946 65.27915955 C-186.27320947 65.25431137 -188.92801831 64.96982032 -192 63 C-185.02833292 40.43470077 -167.36975106 21.39861717 -147 10 C-133.89260291 3.20044996 -119.51502675 -0.65886665 -105 -3 C-104.3498291 -3.10586426 -103.6996582 -3.21172852 -103.02978516 -3.32080078 C-68.92076569 -8.54858589 -33.98789734 -3.69646835 0 0 Z " transform="translate(348,453)" style="fill: #FBFCF8;"/><path d="M0 0 C1 2 1 2 0.16723633 5.05004883 C-0.27026216 6.35493877 -0.7159589 7.65709672 -1.16796875 8.95703125 C-1.52209587 10.005243 -1.52209587 10.005243 -1.88337708 11.07463074 C-2.64440381 13.32304145 -3.41552516 15.56782729 -4.1875 17.8125 C-5.18387288 20.73470048 -6.17619351 23.65826765 -7.16796875 26.58203125 C-7.41205475 27.29910751 -7.65614075 28.01618378 -7.90762329 28.75498962 C-9.75758768 34.21366435 -11.46938086 39.70775133 -13.14379883 45.22290039 C-22.09879037 74.26853164 -38.4561356 95.21540476 -59.09472656 116.98144531 C-61.55685106 119.58995958 -63.99313739 122.22185202 -66.42993164 124.85400391 C-77.49077684 136.78601166 -88.76498207 148.16688671 -101.5625 158.25 C-102.09286865 158.67490723 -102.6232373 159.09981445 -103.16967773 159.53759766 C-106.95348369 162.47064496 -110.57932856 164.2830179 -115 166 C-115.72375364 163.673649 -116.38287817 161.3559043 -117 159 C-117.19078125 158.28199219 -117.3815625 157.56398438 -117.578125 156.82421875 C-123.15962119 131.82708939 -117.35857479 105.4813055 -104 84 C-92.5214575 66.99626209 -77.29878177 51.44029466 -61 39 C-60.47422363 38.59249512 -59.94844727 38.18499023 -59.40673828 37.76513672 C-48.46831639 29.31949523 -36.82694278 22.12385352 -25 15 C-23.32574951 13.99042236 -23.32574951 13.99042236 -21.61767578 12.96044922 C-14.42161584 8.6238545 -7.21471834 4.30548531 0 0 Z " transform="translate(883,412)" style="fill: #FBFCF8;"/><path d="M0 0 C-0.680625 0.8765625 -1.36125 1.753125 -2.0625 2.65625 C-8.42768377 10.95288388 -14.37345272 19.45374451 -20.125 28.1875 C-28.27484274 40.53551405 -36.6873006 52.32992983 -47 63 C-48.23363281 64.28970703 -48.23363281 64.28970703 -49.4921875 65.60546875 C-62.84634263 78.71372584 -80.15732067 87.22396712 -96.328125 96.3515625 C-100.01982636 98.43568235 -103.67281024 100.57602314 -107.3125 102.75 C-144.32079826 124.37754452 -144.32079826 124.37754452 -160 124 C-159.23851543 99.97516179 -151.58680358 78.46839752 -136 60 C-134.8553125 58.4840625 -134.8553125 58.4840625 -133.6875 56.9375 C-129.56852001 52.43535909 -124.84250928 48.6956336 -120 45 C-118.82848389 44.09652832 -118.82848389 44.09652832 -117.63330078 43.17480469 C-110.80042273 38.0386982 -103.72952005 33.88646118 -96.125 30 C-95.54272644 29.70007141 -94.96045288 29.40014282 -94.36053467 29.09112549 C-75.15934814 19.22936053 -55.19771768 12.63084857 -34.25 7.5625 C-25.38169494 5.39350278 -16.572626 3.15302101 -7.88574219 0.33422852 C-3.31142592 -1.10380864 -3.31142592 -1.10380864 0 0 Z " transform="translate(568,465)" style="fill: #FBFCF8;"/><path d="M0 0 C6.88911777 -0.37547324 12.65296126 0.95804575 19.25 2.875 C20.33845215 3.18743652 21.4269043 3.49987305 22.54833984 3.82177734 C70.32261563 17.84581699 117.39692053 36.32434963 150.328125 75.04296875 C152.34301507 77.40151998 154.4192888 79.69934785 156.5 82 C159.24219622 85.035007 161.95323458 88.09040869 164.625 91.1875 C167.91315163 94.96848935 171.40919128 98.50742009 175 102 C174.67 102.66 174.34 103.32 174 104 C163.99790269 102.65676784 153.99673888 101.30693094 143.99694824 99.94662476 C139.5581255 99.34368704 135.11820948 98.7516934 130.67578125 98.17578125 C99.43300209 94.05684596 65.57742546 86.42684221 40 67 C38.58847656 65.93652344 38.58847656 65.93652344 37.1484375 64.8515625 C16.24559846 48.4402426 5.04527126 25.68501733 0 0 Z " transform="translate(540,612)" style="fill: #FBFCF8;"/><path d="M0 0 C5.89276197 0.4585807 9.80719745 2.18086124 14.8125 5.25 C15.54315674 5.68965088 16.27381348 6.12930176 17.02661133 6.58227539 C33.79655201 16.86200805 49.20086723 29.33221193 64.35546875 41.82421875 C66.14225904 43.29429584 67.93677139 44.75502972 69.73828125 46.20703125 C103.1644774 73.20329433 122.54324686 108.36283068 138 148 C133.4685961 146.56562687 129.12776286 144.83018509 124.78515625 142.91015625 C124.10105179 142.60989532 123.41694733 142.3096344 122.71211243 142.00027466 C120.49390088 141.02476072 118.27790198 140.0443767 116.0625 139.0625 C114.92509369 138.55887436 114.92509369 138.55887436 113.76470947 138.04507446 C74.85502215 120.79582092 74.85502215 120.79582092 59 110 C58.39897461 109.59426758 57.79794922 109.18853516 57.17871094 108.77050781 C29.11518555 89.69336198 7.19650855 66.43394402 0.44702148 32.19482422 C-0.03140549 28.77554766 -0.11293046 25.52228314 -0.09765625 22.0703125 C-0.09443359 20.78125 -0.09121094 19.4921875 -0.08789062 18.1640625 C-0.07953733 16.81770764 -0.07107241 15.47135348 -0.0625 14.125 C-0.0574783 12.75520996 -0.05291657 11.38541815 -0.04882812 10.015625 C-0.03707254 6.6770381 -0.02063964 3.33854185 0 0 Z " transform="translate(271,568)" style="fill: #FBFCF8;"/></svg>